<svg width="147" height="332" viewBox="0 0 147 332" fill="none" xmlns="http://www.w3.org/2000/svg">
<ellipse cx="7.62676" cy="2.47761" rx="2.20879" ry="2.47761" fill="#4C51C6"/>
<ellipse cx="53.0442" cy="2.47761" rx="2.20879" ry="2.47761" fill="#4C51C6"/>
<ellipse cx="98.4617" cy="2.47761" rx="2.20879" ry="2.47761" fill="#4C51C6"/>
<ellipse cx="143.88" cy="2.47761" rx="2.20879" ry="2.47761" fill="#4C51C6"/>
<ellipse cx="7.62676" cy="38.816" rx="2.20879" ry="2.47761" fill="#4C51C6"/>
<ellipse cx="53.0442" cy="38.816" rx="2.20879" ry="2.47761" fill="#4C51C6"/>
<ellipse cx="98.4617" cy="38.816" rx="2.20879" ry="2.47761" fill="#4C51C6"/>
<ellipse cx="143.88" cy="38.816" rx="2.20879" ry="2.47761" fill="#4C51C6"/>
<ellipse cx="7.62676" cy="75.1544" rx="2.20879" ry="2.47761" fill="#4C51C6"/>
<ellipse cx="53.0442" cy="75.1544" rx="2.20879" ry="2.47761" fill="#4C51C6"/>
<ellipse cx="98.4617" cy="75.1544" rx="2.20879" ry="2.47761" fill="#4C51C6"/>
<ellipse cx="143.88" cy="75.1544" rx="2.20879" ry="2.47761" fill="#4C51C6"/>
<ellipse cx="7.62676" cy="111.493" rx="2.20879" ry="2.47761" fill="#4C51C6"/>
<ellipse cx="53.0442" cy="111.493" rx="2.20879" ry="2.47761" fill="#4C51C6"/>
<ellipse cx="98.4617" cy="111.493" rx="2.20879" ry="2.47761" fill="#4C51C6"/>
<ellipse cx="143.88" cy="111.493" rx="2.20879" ry="2.47761" fill="#4C51C6"/>
<ellipse cx="7.62676" cy="147.831" rx="2.20879" ry="2.47761" fill="#4C51C6"/>
<ellipse cx="53.0442" cy="147.831" rx="2.20879" ry="2.47761" fill="#4C51C6"/>
<ellipse cx="98.4617" cy="147.831" rx="2.20879" ry="2.47761" fill="#4C51C6"/>
<ellipse cx="143.88" cy="147.831" rx="2.20879" ry="2.47761" fill="#4C51C6"/>
<ellipse cx="7.62676" cy="184.169" rx="2.20879" ry="2.47761" fill="#4C51C6"/>
<ellipse cx="53.0442" cy="184.169" rx="2.20879" ry="2.47761" fill="#4C51C6"/>
<ellipse cx="98.4617" cy="184.169" rx="2.20879" ry="2.47761" fill="#4C51C6"/>
<ellipse cx="143.88" cy="184.169" rx="2.20879" ry="2.47761" fill="#4C51C6"/>
<ellipse cx="7.62676" cy="220.507" rx="2.20879" ry="2.47761" fill="#4C51C6"/>
<ellipse cx="53.0442" cy="220.507" rx="2.20879" ry="2.47761" fill="#4C51C6"/>
<ellipse cx="98.4617" cy="220.507" rx="2.20879" ry="2.47761" fill="#4C51C6"/>
<ellipse cx="143.88" cy="220.507" rx="2.20879" ry="2.47761" fill="#4C51C6"/>
<ellipse cx="7.62676" cy="256.846" rx="2.20879" ry="2.47761" fill="#4C51C6"/>
<ellipse cx="53.0442" cy="256.846" rx="2.20879" ry="2.47761" fill="#4C51C6"/>
<ellipse cx="98.4617" cy="256.846" rx="2.20879" ry="2.47761" fill="#4C51C6"/>
<ellipse cx="143.88" cy="256.846" rx="2.20879" ry="2.47761" fill="#4C51C6"/>
<ellipse cx="7.62676" cy="293.184" rx="2.20879" ry="2.47761" fill="#4C51C6"/>
<ellipse cx="53.0442" cy="293.184" rx="2.20879" ry="2.47761" fill="#4C51C6"/>
<ellipse cx="98.4617" cy="293.184" rx="2.20879" ry="2.47761" fill="#4C51C6"/>
<ellipse cx="143.88" cy="293.184" rx="2.20879" ry="2.47761" fill="#4C51C6"/>
<ellipse cx="7.62676" cy="329.522" rx="2.20879" ry="2.47761" fill="#4C51C6"/>
<ellipse cx="53.0442" cy="329.522" rx="2.20879" ry="2.47761" fill="#4C51C6"/>
<ellipse cx="98.4622" cy="329.522" rx="2.20879" ry="2.47761" fill="#4C51C6"/>
<ellipse cx="143.88" cy="329.523" rx="2.20879" ry="2.47761" fill="#4C51C6"/>
</svg>
