<svg width="32" height="30" viewBox="0 0 32 30" fill="none" xmlns="http://www.w3.org/2000/svg">
<path d="M15.7359 19.7686C18.4017 19.7686 20.5627 17.726 20.5627 15.2063C20.5627 12.6866 18.4017 10.644 15.7359 10.644C13.0702 10.644 10.9092 12.6866 10.9092 15.2063C10.9092 17.726 13.0702 19.7686 15.7359 19.7686Z" stroke="white" stroke-linecap="round" stroke-linejoin="round"/>
<path d="M21.0458 4.71313H10.4269C7.22798 4.71313 4.63477 7.16426 4.63477 10.1879V20.2249C4.63477 23.2485 7.22798 25.6997 10.4269 25.6997H21.0458C24.2447 25.6997 26.8379 23.2485 26.8379 20.2249V10.1879C26.8379 7.16426 24.2447 4.71313 21.0458 4.71313Z" stroke="white" stroke-linecap="round" stroke-linejoin="round"/>
<path d="M22.0108 10.1878C22.5439 10.1878 22.9761 9.77931 22.9761 9.27537C22.9761 8.77144 22.5439 8.36292 22.0108 8.36292C21.4776 8.36292 21.0454 8.77144 21.0454 9.27537C21.0454 9.77931 21.4776 10.1878 22.0108 10.1878Z" fill="white"/>
</svg>
