<svg width="650" height="722" viewBox="0 0 650 722" fill="none" xmlns="http://www.w3.org/2000/svg">
<path d="M344.266 719.765C311.105 713.565 287.314 688.596 266.336 666.566C255.102 654.774 244.477 643.626 233.124 635.625C207.47 617.557 184.594 610.694 162.464 604.058C126.693 593.347 89.7019 582.256 49.8981 526.232C9.82325 469.81 -5.20693 416.099 3.96031 362.028C12.9411 309 44.9333 263.157 71.7911 229.164C89.3122 206.963 101.563 179.491 114.509 150.408C125.778 125.117 137.419 98.9723 153.212 75.2546C193.727 14.4532 233.175 -7.36864 285.111 2.33836C305.14 6.07327 325.729 14.1308 347.52 22.6624C366.786 30.1891 386.697 37.9812 409.013 44.1049C411.165 44.6927 413.453 45.2235 415.791 45.6596C427.144 47.783 439.108 47.8399 451.749 47.9157C465.254 47.9916 479.199 48.0674 493.382 50.7217C510.361 53.8878 524.968 60.3528 537.998 70.458C578.294 101.683 581.988 137.345 585.563 171.813C587.02 185.861 588.528 200.365 592.544 215.437C597.679 234.662 606.931 252.388 616.725 271.177C631.704 299.881 647.192 329.57 648.734 366.901C651.699 438.755 609.54 478.664 577.582 502.438C567.33 510.079 557.231 516.089 547.471 521.909C527.171 534.005 509.65 544.451 498.144 565.515C494.704 571.809 492.874 582.597 491.112 593.024C488.994 605.537 486.791 618.486 481.385 630.127C461.831 672.292 419.062 716.713 367.6 720.959C359.669 721.566 351.824 721.168 344.266 719.765Z" fill="#1D3547" fill-opacity="0.05" stroke="#1D3547" stroke-opacity="0.05" stroke-miterlimit="10" stroke-dasharray="25 25"/>
</svg>
