<svg width="320" height="187" viewBox="0 0 320 187" fill="none" xmlns="http://www.w3.org/2000/svg">
<ellipse cx="2.47761" cy="183.879" rx="2.20879" ry="2.47761" transform="rotate(-90 2.47761 183.879)" fill="#4C51C6"/>
<ellipse cx="2.47761" cy="138.462" rx="2.20879" ry="2.47761" transform="rotate(-90 2.47761 138.462)" fill="#4C51C6"/>
<ellipse cx="2.47761" cy="93.0443" rx="2.20879" ry="2.47761" transform="rotate(-90 2.47761 93.0443)" fill="#4C51C6"/>
<ellipse cx="2.47761" cy="47.6267" rx="2.20879" ry="2.47761" transform="rotate(-90 2.47761 47.6267)" fill="#4C51C6"/>
<ellipse cx="2.47761" cy="2.20881" rx="2.20879" ry="2.47761" transform="rotate(-90 2.47761 2.20881)" fill="#4C51C6"/>
<ellipse cx="38.816" cy="183.88" rx="2.20879" ry="2.47761" transform="rotate(-90 38.816 183.88)" fill="#4C51C6"/>
<ellipse cx="38.816" cy="138.462" rx="2.20879" ry="2.47761" transform="rotate(-90 38.816 138.462)" fill="#4C51C6"/>
<ellipse cx="38.816" cy="93.0443" rx="2.20879" ry="2.47761" transform="rotate(-90 38.816 93.0443)" fill="#4C51C6"/>
<ellipse cx="38.816" cy="47.6267" rx="2.20879" ry="2.47761" transform="rotate(-90 38.816 47.6267)" fill="#4C51C6"/>
<ellipse cx="38.816" cy="2.20881" rx="2.20879" ry="2.47761" transform="rotate(-90 38.816 2.20881)" fill="#4C51C6"/>
<ellipse cx="75.1544" cy="183.88" rx="2.20879" ry="2.47761" transform="rotate(-90 75.1544 183.88)" fill="#4C51C6"/>
<ellipse cx="75.1544" cy="138.462" rx="2.20879" ry="2.47761" transform="rotate(-90 75.1544 138.462)" fill="#4C51C6"/>
<ellipse cx="75.1544" cy="93.0443" rx="2.20879" ry="2.47761" transform="rotate(-90 75.1544 93.0443)" fill="#4C51C6"/>
<ellipse cx="75.1544" cy="47.6267" rx="2.20879" ry="2.47761" transform="rotate(-90 75.1544 47.6267)" fill="#4C51C6"/>
<ellipse cx="75.1544" cy="2.20869" rx="2.20879" ry="2.47761" transform="rotate(-90 75.1544 2.20869)" fill="#4C51C6"/>
<ellipse cx="111.493" cy="183.88" rx="2.20879" ry="2.47761" transform="rotate(-90 111.493 183.88)" fill="#4C51C6"/>
<ellipse cx="111.492" cy="138.462" rx="2.20879" ry="2.47761" transform="rotate(-90 111.492 138.462)" fill="#4C51C6"/>
<ellipse cx="111.492" cy="93.0443" rx="2.20879" ry="2.47761" transform="rotate(-90 111.492 93.0443)" fill="#4C51C6"/>
<ellipse cx="111.492" cy="47.6267" rx="2.20879" ry="2.47761" transform="rotate(-90 111.492 47.6267)" fill="#4C51C6"/>
<ellipse cx="111.492" cy="2.20869" rx="2.20879" ry="2.47761" transform="rotate(-90 111.492 2.20869)" fill="#4C51C6"/>
<ellipse cx="147.831" cy="183.88" rx="2.20879" ry="2.47761" transform="rotate(-90 147.831 183.88)" fill="#4C51C6"/>
<ellipse cx="147.831" cy="138.462" rx="2.20879" ry="2.47761" transform="rotate(-90 147.831 138.462)" fill="#4C51C6"/>
<ellipse cx="147.831" cy="93.0443" rx="2.20879" ry="2.47761" transform="rotate(-90 147.831 93.0443)" fill="#4C51C6"/>
<ellipse cx="147.831" cy="47.6267" rx="2.20879" ry="2.47761" transform="rotate(-90 147.831 47.6267)" fill="#4C51C6"/>
<ellipse cx="147.831" cy="2.20881" rx="2.20879" ry="2.47761" transform="rotate(-90 147.831 2.20881)" fill="#4C51C6"/>
<ellipse cx="184.169" cy="183.88" rx="2.20879" ry="2.47761" transform="rotate(-90 184.169 183.88)" fill="#4C51C6"/>
<ellipse cx="184.169" cy="138.462" rx="2.20879" ry="2.47761" transform="rotate(-90 184.169 138.462)" fill="#4C51C6"/>
<ellipse cx="184.169" cy="93.0443" rx="2.20879" ry="2.47761" transform="rotate(-90 184.169 93.0443)" fill="#4C51C6"/>
<ellipse cx="184.169" cy="47.6267" rx="2.20879" ry="2.47761" transform="rotate(-90 184.169 47.6267)" fill="#4C51C6"/>
<ellipse cx="184.169" cy="2.20881" rx="2.20879" ry="2.47761" transform="rotate(-90 184.169 2.20881)" fill="#4C51C6"/>
<ellipse cx="220.507" cy="183.88" rx="2.20879" ry="2.47761" transform="rotate(-90 220.507 183.88)" fill="#4C51C6"/>
<ellipse cx="220.507" cy="138.462" rx="2.20879" ry="2.47761" transform="rotate(-90 220.507 138.462)" fill="#4C51C6"/>
<ellipse cx="220.507" cy="93.0443" rx="2.20879" ry="2.47761" transform="rotate(-90 220.507 93.0443)" fill="#4C51C6"/>
<ellipse cx="220.507" cy="47.6267" rx="2.20879" ry="2.47761" transform="rotate(-90 220.507 47.6267)" fill="#4C51C6"/>
<ellipse cx="220.507" cy="2.20869" rx="2.20879" ry="2.47761" transform="rotate(-90 220.507 2.20869)" fill="#4C51C6"/>
<ellipse cx="256.846" cy="183.88" rx="2.20879" ry="2.47761" transform="rotate(-90 256.846 183.88)" fill="#4C51C6"/>
<ellipse cx="256.846" cy="138.462" rx="2.20879" ry="2.47761" transform="rotate(-90 256.846 138.462)" fill="#4C51C6"/>
<ellipse cx="256.846" cy="93.0443" rx="2.20879" ry="2.47761" transform="rotate(-90 256.846 93.0443)" fill="#4C51C6"/>
<ellipse cx="256.846" cy="47.6267" rx="2.20879" ry="2.47761" transform="rotate(-90 256.846 47.6267)" fill="#4C51C6"/>
<ellipse cx="256.846" cy="2.20869" rx="2.20879" ry="2.47761" transform="rotate(-90 256.846 2.20869)" fill="#4C51C6"/>
<ellipse cx="293.184" cy="183.88" rx="2.20879" ry="2.47761" transform="rotate(-90 293.184 183.88)" fill="#4C51C6"/>
<ellipse cx="293.184" cy="138.462" rx="2.20879" ry="2.47761" transform="rotate(-90 293.184 138.462)" fill="#4C51C6"/>
<ellipse cx="293.184" cy="93.0443" rx="2.20879" ry="2.47761" transform="rotate(-90 293.184 93.0443)" fill="#4C51C6"/>
<ellipse cx="293.184" cy="47.6267" rx="2.20879" ry="2.47761" transform="rotate(-90 293.184 47.6267)" fill="#4C51C6"/>
<ellipse cx="293.184" cy="2.20881" rx="2.20879" ry="2.47761" transform="rotate(-90 293.184 2.20881)" fill="#4C51C6"/>
</svg>
