<svg width="31" height="30" viewBox="0 0 31 30" fill="none" xmlns="http://www.w3.org/2000/svg">
<path d="M25.6909 4.19177H5.41848C4.88533 4.19177 4.45312 4.60029 4.45312 5.10423V24.2658C4.45312 24.7698 4.88533 25.1783 5.41848 25.1783H25.6909C26.224 25.1783 26.6562 24.7698 26.6562 24.2658V5.10423C26.6562 4.60029 26.224 4.19177 25.6909 4.19177Z" stroke="white" stroke-linecap="round" stroke-linejoin="round"/>
<path d="M14.5894 12.8601V20.1598" stroke="white" stroke-linecap="round" stroke-linejoin="round"/>
<path d="M10.7275 12.8601V20.1598" stroke="white" stroke-linecap="round" stroke-linejoin="round"/>
<path d="M14.5894 16.0537C14.5894 15.2067 14.9453 14.3944 15.579 13.7955C16.2126 13.1966 17.072 12.8601 17.9681 12.8601C18.8642 12.8601 19.7236 13.1966 20.3572 13.7955C20.9909 14.3944 21.3468 15.2067 21.3468 16.0537V20.1598" stroke="white" stroke-linecap="round" stroke-linejoin="round"/>
<path d="M10.7276 10.1228C11.2607 10.1228 11.6929 9.71425 11.6929 9.21031C11.6929 8.70637 11.2607 8.29785 10.7276 8.29785C10.1944 8.29785 9.76221 8.70637 9.76221 9.21031C9.76221 9.71425 10.1944 10.1228 10.7276 10.1228Z" fill="white"/>
</svg>
