<svg width="32" height="30" viewBox="0 0 32 30" fill="none" xmlns="http://www.w3.org/2000/svg">
<path d="M15.8155 10.1226C15.8155 7.61338 18.0478 5.52613 20.7026 5.56035C21.6323 5.5705 22.5391 5.83422 23.314 6.31983C24.0889 6.80544 24.6989 7.49226 25.0708 8.29772H29.3304L25.4328 11.9818C25.1813 15.6824 23.4481 19.1537 20.5857 21.6897C17.7234 24.2258 13.9466 25.6362 10.0233 25.6344C6.16194 25.6344 5.19659 24.2657 5.19659 24.2657C5.19659 24.2657 9.058 22.897 10.9887 20.1597C10.9887 20.1597 3.26588 16.5098 5.19659 6.47281C5.19659 6.47281 10.0233 11.0351 15.8155 11.9476V10.1226Z" stroke="white" stroke-linecap="round" stroke-linejoin="round"/>
</svg>
